<svg width="1920" height="1080" viewBox="0 0 1920 1080" fill="none" xmlns="http://www.w3.org/2000/svg">
<rect width="1920" height="1080" fill="black"/>
<path d="M302 188V828" stroke="white"/>
<path d="M366 188V828" stroke="white"/>
<path d="M430 188V828" stroke="white"/>
<path d="M494 188V828" stroke="white"/>
<path d="M558 188V828" stroke="white"/>
<path d="M622 188V828" stroke="white"/>
<path d="M686 188V828" stroke="white"/>
<path d="M750 188V828" stroke="white"/>
<path d="M814 188V828" stroke="white"/>
<path d="M878 188V828" stroke="white"/>
<path d="M942 188V828" stroke="white"/>
<path d="M1006 188V828" stroke="white"/>
<path d="M1070 188V828" stroke="white"/>
<path d="M1134 188V828" stroke="white"/>
<path d="M1198 188V828" stroke="white"/>
<path d="M1262 188V828" stroke="white"/>
<path d="M1326 188V828" stroke="white"/>
<path d="M1390 188V828" stroke="white"/>
<path d="M1454 188V828" stroke="white"/>
<path d="M1518 188V828" stroke="white"/>
<path d="M302 828L1518 828" stroke="white"/>
<path d="M302 764L1518 764" stroke="white"/>
<path d="M302 700L1518 700" stroke="white"/>
<path d="M302 636L1518 636" stroke="white"/>
<path d="M302 572L1518 572" stroke="white"/>
<path d="M302 508L1518 508" stroke="white"/>
<path d="M302 444L1518 444" stroke="white"/>
<path d="M302 380L1518 380" stroke="white"/>
<path d="M302 316L1518 316" stroke="white"/>
<path d="M302 252L1518 252" stroke="white"/>
<path d="M302 188L1518 188" stroke="white"/>
</svg>
